<?xml version="1.0" standalone="no"?>
<!DOCTYPE svg PUBLIC "-//W3C//DTD SVG 20010904//EN"
 "http://www.w3.org/TR/2001/REC-SVG-20010904/DTD/svg10.dtd">
<svg version="1.0" xmlns="http://www.w3.org/2000/svg"
 width="1040.000000pt" height="1040.000000pt" viewBox="0 0 1040.000000 1040.000000"
 preserveAspectRatio="xMidYMid meet">
<metadata>
Created by potrace 1.11, written by Peter Selinger 2001-2013
</metadata>
<g transform="translate(0.000000,1040.000000) scale(0.100000,-0.100000)"
fill="#000000" stroke="none">
<path d="M7979 8154 c-148 -28 -218 -102 -214 -224 2 -70 14 -98 116 -287 19
-34 46 -83 61 -110 33 -61 68 -125 76 -138 4 -5 7 -12 7 -15 0 -3 12 -25 26
-50 15 -25 43 -76 64 -115 21 -38 51 -94 67 -122 15 -29 41 -77 56 -105 110
-202 116 -213 169 -288 47 -65 178 -170 279 -222 86 -45 225 -82 299 -81 113
3 284 57 400 126 151 91 213 160 405 447 323 483 385 575 393 578 4 2 7 8 7
13 0 5 22 39 48 76 27 38 51 76 55 86 3 9 11 17 17 17 6 0 9 4 6 8 -3 5 3 18
14 30 30 32 62 138 56 187 -8 78 -54 130 -141 160 -53 18 -29 18 -1522 29
-281 2 -516 7 -522 10 -6 4 -11 4 -11 -1 0 -4 -16 -8 -35 -8 -19 0 -35 3 -35
7 0 4 -13 3 -29 -2 -16 -4 -33 -5 -37 0 -5 4 -39 1 -75 -6z"/>
<path d="M5266 8143 c-1 -1 -250 -3 -553 -4 l-550 -2 7 -32 c6 -29 148 -319
189 -390 10 -16 42 -75 71 -130 29 -55 68 -127 85 -160 18 -33 51 -95 74 -138
39 -74 85 -159 156 -292 48 -89 135 -248 177 -324 21 -36 46 -82 55 -101 10
-19 21 -37 24 -40 4 -3 15 -23 26 -45 20 -40 55 -104 125 -228 21 -38 38 -75
38 -83 0 -8 3 -14 8 -14 4 0 12 -10 17 -23 12 -25 115 -218 153 -287 13 -25
44 -81 67 -125 23 -44 58 -109 77 -145 38 -69 90 -167 143 -265 18 -33 46 -86
63 -117 17 -32 28 -58 24 -58 -4 0 -2 -4 4 -8 7 -4 32 -45 56 -92 25 -47 64
-121 88 -165 48 -88 91 -170 161 -302 26 -48 55 -104 66 -123 11 -19 46 -84
78 -145 32 -60 69 -127 82 -147 13 -21 20 -38 17 -38 -4 0 -2 -6 4 -12 14 -18
155 -278 186 -345 6 -13 14 -23 19 -23 4 0 7 -7 7 -15 0 -8 14 -37 30 -65 17
-28 30 -53 30 -56 0 -2 11 -22 25 -44 14 -22 22 -40 18 -40 -5 0 -3 -4 2 -8 6
-4 17 -20 25 -37 8 -16 17 -32 20 -35 3 -3 25 -43 48 -90 24 -47 52 -98 61
-115 10 -16 48 -88 86 -160 37 -71 71 -134 75 -140 4 -5 31 -56 60 -113 30
-57 72 -123 95 -148 50 -53 131 -87 177 -74 15 5 31 9 33 9 16 2 64 33 89 58
32 32 56 68 111 168 21 39 58 105 82 149 23 43 43 82 43 87 0 5 3 9 8 9 4 0
14 15 21 32 8 18 36 70 63 116 26 46 48 87 48 92 0 5 7 16 16 24 9 9 17 22 18
29 1 7 11 28 23 47 12 19 32 55 45 80 14 25 41 74 61 110 117 206 148 307 149
480 1 110 -3 160 -17 225 -9 41 -11 47 -18 68 -10 25 -18 51 -19 57 0 6 -62
121 -143 265 -34 61 -73 130 -87 155 -14 25 -34 61 -45 80 -11 19 -35 62 -53
95 -44 80 -53 97 -272 490 -105 187 -196 350 -204 363 -8 12 -12 22 -9 22 4 0
-1 7 -9 16 -9 8 -16 22 -16 30 0 8 -4 14 -9 14 -5 0 -12 9 -16 20 -3 10 -42
82 -86 159 -43 77 -79 145 -79 151 0 5 -4 10 -8 10 -4 0 -13 12 -19 28 -7 15
-26 52 -44 82 -17 30 -47 84 -67 120 -19 36 -43 79 -53 95 -10 17 -29 51 -42
76 -36 66 -101 181 -143 254 -16 28 -29 52 -29 55 0 3 -19 37 -41 75 -23 39
-61 106 -85 150 -24 44 -49 89 -56 100 -7 11 -16 29 -22 40 -5 11 -41 76 -80
143 -39 68 -71 126 -71 129 0 19 -108 178 -152 223 -55 58 -159 140 -178 140
-5 0 -10 5 -10 10 0 6 -3 9 -7 8 -5 -1 -35 11 -68 27 -101 47 -143 61 -223 71
-49 6 -321 12 -326 7z"/>
<path d="M3028 7717 c-43 -21 -107 -89 -136 -145 -11 -20 -41 -75 -67 -122
-25 -47 -55 -103 -66 -125 -11 -22 -28 -53 -38 -70 -9 -16 -33 -59 -53 -95
-20 -36 -47 -85 -60 -110 -14 -25 -46 -85 -73 -135 -26 -49 -54 -98 -63 -107
-8 -10 -12 -18 -7 -18 4 0 1 -10 -7 -22 -8 -13 -30 -50 -48 -83 -18 -33 -43
-78 -55 -101 -13 -22 -26 -56 -30 -75 -4 -19 -10 -38 -13 -44 -4 -5 -7 -14 -9
-20 -1 -5 -4 -21 -7 -35 -24 -103 -23 -261 0 -382 3 -15 5 -30 5 -33 -1 -12
50 -136 77 -185 16 -30 40 -75 53 -100 13 -25 27 -47 30 -50 3 -3 27 -45 54
-95 27 -49 56 -103 66 -120 10 -16 26 -46 36 -65 9 -19 19 -37 22 -40 4 -3 13
-19 22 -35 38 -75 74 -140 79 -145 3 -3 19 -30 35 -61 26 -50 122 -223 224
-404 18 -33 44 -80 58 -105 13 -25 33 -61 45 -80 11 -19 32 -56 45 -82 13 -26
28 -50 33 -53 6 -4 8 -11 5 -16 -4 -5 -2 -9 2 -9 5 0 28 -37 52 -82 24 -46 56
-105 72 -133 16 -27 32 -57 36 -65 3 -8 12 -22 19 -30 7 -8 13 -19 14 -25 1
-5 16 -35 34 -65 18 -30 39 -70 47 -87 7 -18 17 -33 21 -33 5 0 8 -4 8 -9 0
-4 61 -118 136 -252 75 -134 150 -269 167 -299 16 -30 49 -89 72 -130 24 -41
56 -100 72 -130 30 -55 66 -118 110 -195 12 -22 26 -47 30 -55 4 -8 29 -52 55
-98 26 -46 48 -86 48 -88 0 -13 59 -84 114 -139 97 -97 266 -196 372 -219 16
-4 40 -10 54 -13 26 -8 1435 -12 1458 -5 14 5 10 25 -21 92 -12 25 -21 47 -22
50 -1 8 -110 225 -115 230 -5 5 -8 11 -95 175 -29 55 -73 138 -99 185 -25 47
-63 119 -83 160 -21 41 -41 77 -45 78 -5 2 -8 7 -8 11 0 5 -23 50 -51 102 -65
120 -85 155 -185 337 -15 26 -73 130 -129 232 -108 197 -169 310 -305 565 -50
95 -103 194 -155 290 -21 39 -56 104 -78 145 -21 41 -52 98 -67 125 -15 28
-51 95 -80 150 -69 131 -90 167 -102 183 -6 6 -8 12 -4 12 3 0 -4 17 -17 38
-13 20 -50 87 -82 147 -32 61 -78 148 -103 195 -24 47 -52 99 -62 115 -17 30
-54 98 -145 270 -26 50 -52 94 -56 100 -5 5 -9 17 -9 26 0 10 -4 19 -8 21 -5
2 -33 50 -64 108 -30 58 -66 125 -80 150 -14 25 -51 95 -83 155 -31 61 -60
115 -64 120 -7 8 -60 108 -173 325 -12 25 -29 51 -35 58 -7 7 -13 19 -13 26 0
7 -9 25 -21 40 -11 14 -17 26 -14 26 4 0 3 6 -3 13 -9 12 -37 62 -117 212 -20
39 -41 75 -46 81 -5 6 -6 14 -2 17 3 4 1 7 -5 7 -7 0 -12 6 -12 13 0 13 -7 23
-51 74 -70 81 -156 102 -241 60z"/>
<path d="M1250 4543 c-46 -23 -92 -66 -119 -114 -50 -86 -73 -127 -84 -149 -6
-14 -14 -27 -18 -30 -3 -3 -12 -18 -20 -35 -18 -36 -270 -491 -308 -555 -14
-25 -37 -67 -51 -95 -14 -27 -27 -52 -31 -55 -9 -8 -119 -213 -119 -222 0 -4
-4 -8 -10 -8 -5 0 -10 -5 -10 -10 0 -6 -40 -83 -90 -171 -49 -88 -90 -162 -90
-164 0 -3 -18 -34 -40 -70 -22 -36 -40 -67 -40 -69 0 -2 -18 -35 -39 -73 -111
-197 -121 -219 -126 -298 -7 -88 63 -192 141 -210 10 -2 35 -8 54 -13 43 -10
1213 -8 1289 2 107 14 247 74 356 151 69 49 185 168 185 190 0 8 3 15 8 15 7
0 34 53 38 75 1 6 10 30 19 55 16 45 20 61 31 155 10 86 5 226 -12 295 -2 8
-8 35 -14 60 -6 25 -43 108 -82 185 -39 77 -78 154 -86 170 -8 17 -22 38 -30
48 -8 9 -12 17 -7 17 4 0 1 10 -8 23 -8 12 -47 86 -87 162 -40 77 -95 183
-123 235 -27 52 -81 156 -120 230 -110 213 -135 246 -207 277 -54 24 -97 23
-150 -4z"/>
</g>
</svg>
